<?xml version="1.0" encoding="utf-8"?>
<!-- Generator: Adobe Illustrator 24.0.0, SVG Export Plug-In . SVG Version: 6.00 Build 0)  -->
<svg version="1.1" id="Layer_1" xmlns="http://www.w3.org/2000/svg" xmlns:xlink="http://www.w3.org/1999/xlink" x="0px" y="0px"
	 viewBox="0 0 841.89 595.28" style="enable-background:new 0 0 841.89 595.28;" xml:space="preserve">
<style type="text/css">
	.st0{fill:#C6C8C9;}
	.st1{font-family:'Impact';}
	.st2{font-size:124.3453px;}
	.st3{display:none;fill:#231F20;}
	.st4{display:none;}
	.st5{display:inline;}
	.st6{fill:#FFFFFF;}
	.st7{font-family:'Dubai-Regular';}
	.st8{font-size:27.5972px;}
	.st9{display:none;fill:url(#SVGID_1_);}
	.st10{display:none;fill:url(#SVGID_2_);}
	.st11{display:none;fill:url(#SVGID_3_);}
</style>
<text transform="matrix(1.1349 0 0 1 243.9996 336.1799)" class="st0 st1 st2">EVOLC</text>
<rect x="711.45" y="212.64" class="st3" width="93.45" height="126.38"/>
<g class="st4">
	<g class="st5">
		<g>
			<path class="st6" d="M651.43,325.44h-3.69c-0.38,0-0.69-0.31-0.69-0.69c0-0.38,0.31-0.69,0.69-0.69h3v-17.7
				c0-0.38,0.31-0.69,0.69-0.69c0.38,0,0.69,0.31,0.69,0.69v18.39C652.12,325.13,651.81,325.44,651.43,325.44z M644.06,325.44
				h-22.07c-0.38,0-0.69-0.31-0.69-0.69c0-0.38,0.31-0.69,0.69-0.69h22.07c0.38,0,0.69,0.31,0.69,0.69
				C644.75,325.13,644.44,325.44,644.06,325.44z M618.31,325.44h-14.7c-0.38,0-0.69-0.31-0.69-0.69v-7.37
				c0-0.38,0.31-0.69,0.69-0.69c0.38,0,0.69,0.31,0.69,0.69v6.68h14.01c0.38,0,0.69,0.31,0.69,0.69
				C619,325.13,618.69,325.44,618.31,325.44z M603.61,314.39c-0.38,0-0.69-0.31-0.69-0.69v-22.07c0-0.38,0.31-0.69,0.69-0.69
				c0.38,0,0.69,0.31,0.69,0.69v22.07C604.3,314.08,603.99,314.39,603.61,314.39z M651.43,303.37c-0.38,0-0.69-0.31-0.69-0.69
				v-22.07c0-0.38,0.31-0.69,0.69-0.69c0.38,0,0.69,0.31,0.69,0.69v22.07C652.12,303.06,651.81,303.37,651.43,303.37z
				 M603.61,288.63c-0.38,0-0.69-0.31-0.69-0.69v-11.02c0-0.38,0.31-0.69,0.69-0.69h22.07c0.38,0,0.69,0.31,0.69,0.69
				c0,0.38-0.31,0.69-0.69,0.69H604.3v10.33C604.3,288.32,603.99,288.63,603.61,288.63z M651.43,277.61c-0.02,0-0.04,0-0.06,0
				h-22.01c-0.38,0-0.69-0.31-0.69-0.69c0-0.38,0.31-0.69,0.69-0.69h22.07c0.38,0,0.69,0.31,0.69,0.69
				C652.12,277.3,651.81,277.61,651.43,277.61z"/>
		</g>
		<g>
			<path class="st6" d="M646.65,320.44h-9.79c-0.38,0-0.69-0.31-0.69-0.69c0-0.38,0.31-0.69,0.69-0.69h9.1v-11.6
				c0-0.38,0.31-0.69,0.69-0.69c0.38,0,0.69,0.31,0.69,0.69v12.29C647.34,320.13,647.03,320.44,646.65,320.44z M633.18,320.44
				h-22.07c-0.38,0-0.69-0.31-0.69-0.69c0-0.38,0.31-0.69,0.69-0.69h22.07c0.38,0,0.69,0.31,0.69,0.69
				C633.87,320.13,633.56,320.44,633.18,320.44z M608.61,319.26c-0.38,0-0.69-0.31-0.69-0.69V296.5c0-0.38,0.31-0.69,0.69-0.69
				c0.38,0,0.69,0.31,0.69,0.69v22.07C609.3,318.95,608.99,319.26,608.61,319.26z M646.65,304.47c-0.38,0-0.69-0.31-0.69-0.69
				v-21.81c-0.1,0.25-0.35,0.42-0.64,0.42h-22.07c-0.38,0-0.69-0.31-0.69-0.69c0-0.38,0.31-0.69,0.69-0.69h22.07
				c0.31,0,0.58,0.21,0.66,0.5c0.08-0.29,0.35-0.5,0.66-0.5c0.38,0,0.69,0.31,0.69,0.69v22.07
				C647.34,304.16,647.03,304.47,646.65,304.47z M608.61,293.51c-0.38,0-0.69-0.31-0.69-0.69v-11.11c0-0.38,0.31-0.69,0.69-0.69
				h10.96c0.38,0,0.69,0.31,0.69,0.69c0,0.38-0.31,0.69-0.69,0.69H609.3v10.42C609.3,293.2,608.99,293.51,608.61,293.51z"/>
		</g>
		<g>
			<path class="st6" d="M627.63,282.4c-0.38,0-0.69-0.3-0.69-0.68l-0.1-9.56c0-0.27,0.15-0.51,0.39-0.63l7.52-3.68
				c0.34-0.17,0.75-0.03,0.92,0.32c0.17,0.34,0.03,0.76-0.32,0.92l-7.13,3.49l0.1,9.13C628.32,282.08,628.02,282.39,627.63,282.4
				C627.63,282.4,627.63,282.4,627.63,282.4z"/>
		</g>
		<g>
			<path class="st6" d="M659.96,308.94c-0.26,0-0.5-0.14-0.62-0.39l-3.44-7.13l-9.24,0.1c0,0,0,0-0.01,0c-0.38,0-0.69-0.3-0.69-0.68
				c0-0.38,0.3-0.69,0.68-0.7l9.68-0.1c0,0,0,0,0.01,0c0.26,0,0.51,0.15,0.62,0.39l3.63,7.52c0.17,0.34,0.02,0.76-0.32,0.92
				C660.16,308.92,660.06,308.94,659.96,308.94z"/>
		</g>
		<g>
			<path class="st6" d="M627.52,272.83c-0.1,0-0.21-0.02-0.31-0.07l-7.32-3.66c-0.34-0.17-0.48-0.58-0.31-0.93
				c0.17-0.34,0.58-0.48,0.93-0.31l7.32,3.66c0.34,0.17,0.48,0.58,0.31,0.93C628.02,272.69,627.78,272.83,627.52,272.83z"/>
		</g>
		<g>
			<path class="st6" d="M656.33,301.42c-0.1,0-0.21-0.02-0.3-0.07c-0.34-0.17-0.48-0.58-0.31-0.92l3.61-7.31
				c0.17-0.34,0.58-0.48,0.92-0.31c0.34,0.17,0.48,0.58,0.31,0.92l-3.61,7.31C656.82,301.28,656.58,301.42,656.33,301.42z"/>
		</g>
		<g>
			<path class="st6" d="M637.09,282.4c-0.13,0-0.26-0.04-0.38-0.12c-0.32-0.21-0.4-0.64-0.19-0.96l9.56-14.35
				c0.13-0.19,0.37-0.34,0.58-0.31l4.83,0.03c0.38,0,0.69,0.31,0.69,0.69c0,0.38-0.31,0.69-0.69,0.69c0,0,0,0,0,0l-4.46-0.03
				l-9.35,14.04C637.53,282.29,637.31,282.4,637.09,282.4z"/>
		</g>
		<g>
			<path class="st6" d="M661.07,325.35C661.07,325.35,661.07,325.35,661.07,325.35c-0.38,0-0.69-0.31-0.69-0.69l0.02-4.43
				l-14.14-9.26c-0.32-0.21-0.41-0.64-0.2-0.96c0.21-0.32,0.64-0.41,0.96-0.2l14.45,9.46c0.2,0.13,0.31,0.35,0.31,0.58l-0.03,4.8
				C661.76,325.04,661.45,325.35,661.07,325.35z"/>
		</g>
		<g>
			<path class="st6" d="M634.96,333.85c-0.1,0-0.2-0.02-0.3-0.07l-7.44-3.63c-0.24-0.12-0.39-0.36-0.39-0.62v-9.57
				c0-0.38,0.31-0.69,0.69-0.69c0.38,0,0.69,0.31,0.69,0.69v9.14l7.05,3.44c0.34,0.17,0.48,0.58,0.32,0.92
				C635.46,333.71,635.22,333.85,634.96,333.85z"/>
		</g>
		<g>
			<path class="st6" d="M595.26,308.94c-0.1,0-0.2-0.02-0.3-0.07c-0.34-0.17-0.48-0.58-0.32-0.92l3.68-7.52
				c0.12-0.24,0.36-0.39,0.62-0.39h9.67c0.38,0,0.69,0.31,0.69,0.69s-0.31,0.69-0.69,0.69h-9.24l-3.49,7.13
				C595.76,308.79,595.51,308.94,595.26,308.94z"/>
		</g>
		<g>
			<path class="st6" d="M620.2,333.87c-0.25,0-0.5-0.14-0.62-0.38c-0.17-0.34-0.03-0.76,0.31-0.93l7.32-3.65
				c0.34-0.17,0.76-0.03,0.93,0.31c0.17,0.34,0.03,0.76-0.31,0.93l-7.32,3.65C620.41,333.85,620.3,333.87,620.2,333.87z"/>
		</g>
		<g>
			<path class="st6" d="M598.94,301.42c-0.25,0-0.5-0.14-0.62-0.38l-3.66-7.32c-0.17-0.34-0.03-0.75,0.31-0.93
				c0.34-0.17,0.75-0.03,0.93,0.31l3.66,7.32c0.17,0.34,0.03,0.75-0.31,0.93C599.15,301.39,599.04,301.42,598.94,301.42z"/>
		</g>
		<g>
			<path class="st6" d="M608.39,335h-7.06c-0.38,0-0.69-0.31-0.69-0.69c0-0.38,0.31-0.69,0.69-0.69h6.69l8.12-12.18
				c0.21-0.32,0.64-0.4,0.96-0.19c0.32,0.21,0.4,0.64,0.19,0.96l-8.33,12.49C608.84,334.89,608.62,335,608.39,335z"/>
		</g>
		<g>
			<path class="st6" d="M606.63,290.63c-0.13,0-0.27-0.04-0.38-0.12l-12.48-8.35c-0.19-0.13-0.31-0.34-0.31-0.57v-7.06
				c0-0.38,0.31-0.69,0.69-0.69c0.38,0,0.69,0.31,0.69,0.69v6.69l12.17,8.14c0.32,0.21,0.4,0.64,0.19,0.96
				C607.07,290.53,606.85,290.63,606.63,290.63z"/>
		</g>
		<g>
			<path class="st6" d="M637.09,310.88h-3.15c-0.38,0-0.69-0.31-0.69-0.69c0-0.38,0.31-0.69,0.69-0.69h2.46v-18.24
				c0-0.38,0.31-0.69,0.69-0.69c0.38,0,0.69,0.31,0.69,0.69v18.93C637.78,310.57,637.47,310.88,637.09,310.88z M630.26,310.88
				h-12.09c-0.38,0-0.69-0.31-0.69-0.69v-9.98c0-0.38,0.31-0.69,0.69-0.69c0.38,0,0.69,0.31,0.69,0.69v9.29h11.4
				c0.38,0,0.69,0.31,0.69,0.69C630.95,310.57,630.64,310.88,630.26,310.88z M618.17,297.22c-0.38,0-0.69-0.31-0.69-0.69v-5.26
				c0-0.38,0.31-0.69,0.69-0.69h16.81c0.38,0,0.69,0.31,0.69,0.69c0,0.38-0.31,0.69-0.69,0.69h-16.12v4.57
				C618.86,296.91,618.56,297.22,618.17,297.22z"/>
		</g>
		<g>
			<path class="st6" d="M632.31,304.91h-9.57c-0.38,0-0.69-0.31-0.69-0.69c0-0.38,0.31-0.69,0.69-0.69h9.57
				c0.38,0,0.69,0.31,0.69,0.69C633,304.6,632.69,304.91,632.31,304.91z"/>
		</g>
		<g>
			<path class="st6" d="M632.31,298.13h-9.57c-0.38,0-0.69-0.31-0.69-0.69c0-0.38,0.31-0.69,0.69-0.69h9.57
				c0.38,0,0.69,0.31,0.69,0.69C633,297.82,632.69,298.13,632.31,298.13z"/>
		</g>
		<g>
			<path class="st6" d="M618.06,270.5c-1.69,0-3.07-1.38-3.07-3.08c0-1.7,1.38-3.08,3.07-3.08c1.7,0,3.08,1.38,3.08,3.08
				C621.14,269.11,619.76,270.5,618.06,270.5z M618.06,265.71c-0.93,0-1.69,0.76-1.69,1.7c0,0.94,0.76,1.7,1.69,1.7
				c0.94,0,1.7-0.76,1.7-1.7C619.76,266.47,619,265.71,618.06,265.71z"/>
		</g>
		<g>
			<path class="st6" d="M637.19,270.5c-1.7,0-3.08-1.38-3.08-3.08c0-1.7,1.38-3.08,3.08-3.08s3.08,1.38,3.08,3.08
				C640.27,269.11,638.89,270.5,637.19,270.5z M637.19,265.71c-0.94,0-1.7,0.76-1.7,1.7c0,0.94,0.76,1.7,1.7,1.7
				c0.94,0,1.7-0.76,1.7-1.7C638.89,266.47,638.13,265.71,637.19,265.71z"/>
		</g>
		<g>
			<path class="st6" d="M661,313.48c-1.7,0-3.08-1.38-3.08-3.08s1.38-3.08,3.08-3.08c1.7,0,3.08,1.38,3.08,3.08
				S662.7,313.48,661,313.48z M661,308.69c-0.94,0-1.7,0.76-1.7,1.7c0,0.94,0.76,1.7,1.7,1.7c0.94,0,1.7-0.76,1.7-1.7
				C662.7,309.46,661.93,308.69,661,308.69z"/>
		</g>
		<g>
			<path class="st6" d="M656.33,270.5c-1.7,0-3.09-1.38-3.09-3.08c0-1.7,1.39-3.08,3.09-3.08c1.7,0,3.08,1.38,3.08,3.08
				C659.41,269.11,658.02,270.5,656.33,270.5z M656.33,265.71c-0.94,0-1.71,0.76-1.71,1.7c0,0.94,0.77,1.7,1.71,1.7
				c0.94,0,1.7-0.76,1.7-1.7C658.03,266.47,657.26,265.71,656.33,265.71z"/>
		</g>
		<g>
			<path class="st6" d="M661.04,332.61c-1.7,0-3.08-1.38-3.08-3.08c0-1.7,1.38-3.08,3.08-3.08c1.7,0,3.08,1.38,3.08,3.08
				C664.12,331.23,662.74,332.61,661.04,332.61z M661.04,327.83c-0.94,0-1.7,0.76-1.7,1.7c0,0.94,0.76,1.7,1.7,1.7
				c0.94,0,1.7-0.76,1.7-1.7C662.74,328.59,661.98,327.83,661.04,327.83z"/>
		</g>
		<g>
			<path class="st6" d="M598.94,337.33c-1.7,0-3.08-1.38-3.08-3.07c0-1.7,1.38-3.08,3.08-3.08c1.7,0,3.08,1.38,3.08,3.08
				C602.02,335.95,600.64,337.33,598.94,337.33z M598.94,332.55c-0.94,0-1.7,0.76-1.7,1.7c0,0.93,0.76,1.69,1.7,1.69
				c0.94,0,1.7-0.76,1.7-1.69C600.64,333.32,599.88,332.55,598.94,332.55z"/>
		</g>
		<g>
			<path class="st6" d="M594.21,275.22c-1.7,0-3.08-1.38-3.08-3.08c0-1.7,1.38-3.08,3.08-3.08c1.7,0,3.08,1.38,3.08,3.08
				C597.29,273.84,595.91,275.22,594.21,275.22z M594.21,270.44c-0.94,0-1.7,0.76-1.7,1.7c0,0.94,0.76,1.7,1.7,1.7
				c0.94,0,1.7-0.76,1.7-1.7C595.91,271.2,595.15,270.44,594.21,270.44z"/>
		</g>
		<g>
			<path class="st6" d="M618.06,337.33c-1.69,0-3.07-1.38-3.07-3.07c0-1.7,1.38-3.08,3.07-3.08c1.7,0,3.08,1.38,3.08,3.08
				C621.14,335.95,619.76,337.33,618.06,337.33z M618.06,332.55c-0.93,0-1.69,0.76-1.69,1.7c0,0.93,0.76,1.69,1.69,1.69
				c0.94,0,1.7-0.76,1.7-1.69C619.76,333.32,619,332.55,618.06,332.55z"/>
		</g>
		<g>
			<path class="st6" d="M594.21,294.36c-1.7,0-3.08-1.39-3.08-3.09c0-1.69,1.38-3.07,3.08-3.07c1.7,0,3.08,1.38,3.08,3.07
				C597.29,292.97,595.91,294.36,594.21,294.36z M594.21,289.57c-0.94,0-1.7,0.76-1.7,1.69c0,0.94,0.76,1.71,1.7,1.71
				c0.94,0,1.7-0.77,1.7-1.71C595.91,290.33,595.15,289.57,594.21,289.57z"/>
		</g>
		<g>
			<path class="st6" d="M594.21,313.48c-1.7,0-3.08-1.38-3.08-3.08s1.38-3.08,3.08-3.08c1.7,0,3.08,1.38,3.08,3.08
				S595.91,313.48,594.21,313.48z M594.21,308.69c-0.94,0-1.7,0.76-1.7,1.7c0,0.94,0.76,1.7,1.7,1.7c0.94,0,1.7-0.76,1.7-1.7
				C595.91,309.46,595.15,308.69,594.21,308.69z"/>
		</g>
		<g>
			<path class="st6" d="M637.09,337.33c-1.7,0-3.08-1.38-3.08-3.07c0-1.7,1.38-3.08,3.08-3.08c1.7,0,3.08,1.38,3.08,3.08
				C640.17,335.95,638.79,337.33,637.09,337.33z M637.09,332.55c-0.94,0-1.7,0.76-1.7,1.7c0,0.93,0.76,1.69,1.7,1.69
				c0.94,0,1.7-0.76,1.7-1.69C638.79,333.32,638.03,332.55,637.09,332.55z"/>
		</g>
		<g>
			<path class="st6" d="M661,294.36c-1.7,0-3.08-1.39-3.08-3.09c0-1.69,1.38-3.07,3.08-3.07c1.7,0,3.08,1.38,3.08,3.07
				C664.08,292.97,662.7,294.36,661,294.36z M661,289.57c-0.94,0-1.7,0.76-1.7,1.69c0,0.94,0.76,1.71,1.7,1.71
				c0.94,0,1.7-0.77,1.7-1.71C662.7,290.33,661.93,289.57,661,289.57z"/>
		</g>
	</g>
</g>
<text transform="matrix(1 0 0 1 248.6611 371.0869)" class="st0 st7 st8">Automating Tomorrow, Today</text>
<linearGradient id="SVGID_1_" gradientUnits="userSpaceOnUse" x1="691.4239" y1="302.4616" x2="673.8564" y2="341.6148">
	<stop  offset="0" style="stop-color:#4D4D4D"/>
	<stop  offset="0.0434" style="stop-color:#545454"/>
	<stop  offset="0.1074" style="stop-color:#686868"/>
	<stop  offset="0.1843" style="stop-color:#898989"/>
	<stop  offset="0.2703" style="stop-color:#B6B6B6"/>
	<stop  offset="0.328" style="stop-color:#D8D8D8"/>
	<stop  offset="0.3746" style="stop-color:#E2E2E2"/>
	<stop  offset="0.524" style="stop-color:#FFFFFF"/>
	<stop  offset="0.5278" style="stop-color:#FEFEFE"/>
	<stop  offset="0.6555" style="stop-color:#E2E2E2"/>
	<stop  offset="0.7298" style="stop-color:#D8D8D8"/>
	<stop  offset="0.7876" style="stop-color:#ADADAD"/>
	<stop  offset="0.8532" style="stop-color:#848484"/>
	<stop  offset="0.9129" style="stop-color:#666666"/>
	<stop  offset="0.9638" style="stop-color:#545454"/>
	<stop  offset="1" style="stop-color:#4D4D4D"/>
</linearGradient>
<path class="st9" d="M710.58,312.42h-42.5v-9.77c2.1-0.86,3.59-2.92,3.59-5.33c0-3.17-2.58-5.76-5.76-5.76
	c-3.17,0-5.76,2.58-5.76,5.76c0,2.16,1.2,4.05,2.96,5.03v12.55c0,1.37,1.11,2.48,2.48,2.48h42.5v9.92h-51.9v-1.43l-6.78,3.91
	l6.78,3.91v-1.43h54.38c1.37,0,2.48-1.11,2.48-2.48V314.9C713.06,313.53,711.95,312.42,710.58,312.42z M665.91,300.1
	c-1.53,0-2.78-1.25-2.78-2.78c0-0.17,0.02-0.34,0.05-0.51c0.24-1.29,1.38-2.27,2.73-2.27c1.53,0,2.78,1.25,2.78,2.78
	c0,0.66-0.23,1.26-0.61,1.73C667.57,299.69,666.79,300.1,665.91,300.1z"/>
<linearGradient id="SVGID_2_" gradientUnits="userSpaceOnUse" x1="689.3684" y1="237.4297" x2="653.1863" y2="318.0703">
	<stop  offset="0" style="stop-color:#4D4D4D"/>
	<stop  offset="0.0434" style="stop-color:#545454"/>
	<stop  offset="0.1074" style="stop-color:#686868"/>
	<stop  offset="0.1843" style="stop-color:#898989"/>
	<stop  offset="0.2703" style="stop-color:#B6B6B6"/>
	<stop  offset="0.328" style="stop-color:#D8D8D8"/>
	<stop  offset="0.3746" style="stop-color:#E2E2E2"/>
	<stop  offset="0.524" style="stop-color:#FFFFFF"/>
	<stop  offset="0.5278" style="stop-color:#FEFEFE"/>
	<stop  offset="0.6555" style="stop-color:#E2E2E2"/>
	<stop  offset="0.7298" style="stop-color:#D8D8D8"/>
	<stop  offset="0.7876" style="stop-color:#ADADAD"/>
	<stop  offset="0.8532" style="stop-color:#848484"/>
	<stop  offset="0.9129" style="stop-color:#666666"/>
	<stop  offset="0.9638" style="stop-color:#545454"/>
	<stop  offset="1" style="stop-color:#4D4D4D"/>
</linearGradient>
<path class="st10" d="M713.06,249.66v14.65c0,1.37-1.11,2.48-2.48,2.48h-22.56v1.31l-6.78-3.91l6.78-3.91v1.55h20.08v-9.69h-55.01
	v57.52c0.86,0.71,1.4,1.79,1.4,2.99c0,2.14-1.74,3.88-3.88,3.88c-2.15,0-3.89-1.74-3.89-3.88c0-1.2,0.55-2.28,1.41-2.99v-60
	c0-1.37,1.11-2.48,2.48-2.48h59.97C711.95,247.18,713.06,248.29,713.06,249.66z"/>
<linearGradient id="SVGID_3_" gradientUnits="userSpaceOnUse" x1="690.6544" y1="269.5518" x2="678.6459" y2="296.3157">
	<stop  offset="0" style="stop-color:#4D4D4D"/>
	<stop  offset="0.0434" style="stop-color:#545454"/>
	<stop  offset="0.1074" style="stop-color:#686868"/>
	<stop  offset="0.1843" style="stop-color:#898989"/>
	<stop  offset="0.2703" style="stop-color:#B6B6B6"/>
	<stop  offset="0.328" style="stop-color:#D8D8D8"/>
	<stop  offset="0.3746" style="stop-color:#E2E2E2"/>
	<stop  offset="0.524" style="stop-color:#FFFFFF"/>
	<stop  offset="0.5278" style="stop-color:#FEFEFE"/>
	<stop  offset="0.6555" style="stop-color:#E2E2E2"/>
	<stop  offset="0.7298" style="stop-color:#D8D8D8"/>
	<stop  offset="0.7876" style="stop-color:#ADADAD"/>
	<stop  offset="0.8532" style="stop-color:#848484"/>
	<stop  offset="0.9129" style="stop-color:#666666"/>
	<stop  offset="0.9638" style="stop-color:#545454"/>
	<stop  offset="1" style="stop-color:#4D4D4D"/>
</linearGradient>
<path class="st11" d="M708.97,280.11h-40.89v-10.02c2.15-0.88,3.66-3.03,3.58-5.51c-0.09-2.97-2.47-5.41-5.44-5.57
	c-3.31-0.17-6.07,2.47-6.07,5.75c0,2.16,1.2,4.05,2.96,5.03v12.8c0,1.37,1.11,2.48,2.48,2.48h40.89v9.12h-18.43v-1.47l-6.78,3.91
	l6.78,3.91v-1.4h20.91c1.37,0,2.48-1.11,2.48-2.48v-14.08C711.45,281.22,710.34,280.11,708.97,280.11z M665.91,267.69
	c-1.53,0-2.78-1.25-2.78-2.78c0-0.2,0.02-0.4,0.06-0.59c0.27-1.25,1.39-2.19,2.71-2.19c1.53,0,2.78,1.25,2.78,2.78
	c0,0.65-0.23,1.26-0.61,1.73C667.57,267.28,666.79,267.69,665.91,267.69z"/>
</svg>
